<svg width="135" height="135" viewBox="0 0 135 135" version="1.1" xmlns="http://www.w3.org/2000/svg" xmlns:xlink="http://www.w3.org/1999/xlink">
<title>Group 2</title>
<desc>Created using Figma</desc>
<g id="Canvas" transform="translate(-250 -1094)">
<g id="Group 2">
<g id="Oval 20 Copy">
<use xlink:href="#path0_fill" transform="translate(260 1104)" fill="#029D7F"/>
<mask id="mask0_outline_out">
<rect id="mask0_outline_inv" fill="white" x="-10" y="-10" width="135" height="135" transform="translate(260 1104)"/>
<use xlink:href="#path0_fill" fill="black" transform="translate(260 1104)"/>
</mask>
<g mask="url(#mask0_outline_out)">
<use xlink:href="#path1_stroke_2x" transform="translate(260 1104)" fill="#FFFFFF"/>
</g>
</g>
<g id="Shape">
<use xlink:href="#path2_fill" transform="translate(288.145 1139.23)" fill="#FFFFFF"/>
</g>
</g>
</g>
<defs>
<path id="path0_fill" fill-rule="evenodd" d="M 57.5 115C 89.2564 115 115 89.2564 115 57.5C 115 25.7436 89.2564 0 57.5 0C 25.7436 0 0 25.7436 0 57.5C 0 89.2564 25.7436 115 57.5 115Z"/>
<path id="path1_stroke_2x" d="M 57.5 125C 94.7792 125 125 94.7792 125 57.5L 105 57.5C 105 83.7335 83.7335 105 57.5 105L 57.5 125ZM 125 57.5C 125 20.2208 94.7792 -10 57.5 -10L 57.5 10C 83.7335 10 105 31.2665 105 57.5L 125 57.5ZM 57.5 -10C 20.2208 -10 -10 20.2208 -10 57.5L 10 57.5C 10 31.2665 31.2665 10 57.5 10L 57.5 -10ZM -10 57.5C -10 94.7792 20.2208 125 57.5 125L 57.5 105C 31.2665 105 10 83.7335 10 57.5L -10 57.5Z"/>
<path id="path2_fill" fill-rule="evenodd" d="M 19.9916 39.5046L 4.9979 23.8519L 0 29.0694L 19.9916 49.9398L 62.8308 5.21759L 57.8329 0L 19.9916 39.5046Z"/>
</defs>
</svg>
