<svg width="58" height="52" viewBox="0 0 58 52" version="1.1" xmlns="http://www.w3.org/2000/svg" xmlns:xlink="http://www.w3.org/1999/xlink">
<title>Code</title>
<desc>Created using Figma</desc>
<g id="Canvas" transform="translate(4059 -401)">
<g id="Code">
<g id="v 1.4">
<g id="Text">
<g id="Code">
<g id="Combined Shape">
<use xlink:href="#path0_fill" transform="translate(-4059 401)" fill="#FFFFFF" fill-opacity="0.5"/>
</g>
</g>
</g>
</g>
</g>
</g>
<defs>
<path id="path0_fill" d="M 0.764503 24.1249L 11.1645 13.7588C 12.1815 12.7451 13.8277 12.7478 14.8415 13.7648C 15.8552 14.7817 15.8525 16.4279 14.8355 17.4416L 6.2728 26L 14.8414 34.5643C 15.8552 35.5813 15.8525 37.2275 14.8355 38.2412C 13.8185 39.2549 12.1723 39.2522 11.1586 38.2352L 0.758556 27.8018C -0.25517 26.7848 -0.252507 25.1386 0.764503 24.1249ZM 56.4355 24.1249C 57.4525 25.1386 57.4552 26.7848 56.4414 27.8018L 46.0414 38.2352C 45.0277 39.2522 43.3815 39.2549 42.3645 38.2412C 41.3475 37.2275 41.3448 35.5813 42.3586 34.5643L 50.9272 26L 42.3645 17.4416C 41.3475 16.4279 41.3448 14.7817 42.3585 13.7648C 43.3723 12.7478 45.0185 12.7451 46.0355 13.7588L 56.4355 24.1249ZM 25.9381 49.9635C 25.6266 51.3652 24.2377 52.249 22.836 51.9375C 21.4342 51.626 20.5504 50.2372 20.8619 48.8355L 31.2619 2.03649C 31.5734 0.634778 32.9623 -0.249023 34.364 0.0624694C 35.7658 0.373962 36.6496 1.76279 36.3381 3.16451L 25.9381 49.9635Z"/>
</defs>
</svg>
