<svg width="167" height="167" viewBox="0 0 167 167" version="1.1" xmlns="http://www.w3.org/2000/svg" xmlns:xlink="http://www.w3.org/1999/xlink">
<title>Group 41</title>
<desc>Created using Figma</desc>
<g id="Canvas" transform="translate(-4619 -118)">
<g id="Group 41">
<mask id="mask0_outline" mask-type="alpha">
<g id="Clip 35">
<use xlink:href="#path0_fill" transform="translate(4619 118)" fill="#FFFFFF"/>
</g>
</mask>
<g id="Fill 34" mask="url(#mask0_outline)">
<use xlink:href="#path1_fill" transform="translate(4619 118)" fill="#F1F1F1"/>
</g>
<g id="Fill 36" mask="url(#mask0_outline)">
<use xlink:href="#path2_fill" transform="translate(4684.39 213.301)" fill="#BCBCBC"/>
</g>
<g id="Fill 37" mask="url(#mask0_outline)">
<use xlink:href="#path3_fill" transform="translate(4669.25 155.926)" fill="#999999"/>
</g>
<g id="Fill 38" mask="url(#mask0_outline)">
<use xlink:href="#path4_fill" transform="translate(4669.31 146.867)"/>
</g>
<g id="Fill 40" mask="url(#mask0_outline)">
<use xlink:href="#path5_fill" transform="translate(4642.92 231.541)" fill="#565656"/>
</g>
</g>
</g>
<defs>
<path id="path0_fill" fill-rule="evenodd" d="M 166.29 83.145C 166.29 129.065 129.065 166.291 83.145 166.291C 37.2251 166.291 0 129.065 0 83.145C 0 37.2261 37.2251 0 83.145 0C 129.065 0 166.29 37.2261 166.29 83.145Z"/>
<path id="path1_fill" fill-rule="evenodd" d="M 166.29 83.145C 166.29 37.2261 129.065 0 83.145 0C 37.2251 0 0 37.2261 0 83.145C 0 129.065 37.2251 166.291 83.145 166.291C 129.065 166.291 166.29 129.065 166.29 83.145Z"/>
<path id="path2_fill" fill-rule="evenodd" d="M 33.1742 20.3059C 29.7487 15.3331 27.7298 10.4919 27.8623 4.34792C 27.891 3.0211 26.755 2.44108 25.7386 2.6023C 25.62 2.46332 25.482 2.33175 25.3041 2.21871C 20.1376 -1.06962 13.4609 -0.241287 7.94605 1.73041C 7.49853 1.89071 7.2113 2.26133 7.08251 2.67828C 6.42743 2.78112 5.87243 3.34261 6.08183 4.23859C 7.76908 11.4518 5.19975 16.2467 1.8549 22.3277C 0.0648043 25.5845 -0.536528 29.11 0.524374 32.7106C 2.96213 40.9865 11.5179 44.7863 19.628 44.3314C 27.4694 43.8913 35.308 39.9748 36.4653 31.4903C 37.0463 27.2273 35.5452 23.749 33.1742 20.3059Z"/>
<path id="path3_fill" fill-rule="evenodd" d="M 62.8336 27.8006C 63.27 23.9304 63.3803 20.0843 62.9291 16.5504C 60.5626 -1.99266 35.8256 0.013327 22.2618 0.105982C 14.1137 0.161575 9.20389 4.1652 7.0163 11.9612C 5.51992 17.2954 4.93063 22.9168 4.96955 28.5326C 3.67516 28.3046 2.30849 28.7355 1.36526 29.7445C -0.0727433 31.2844 -0.129263 33.6722 0.104228 35.6365C 0.339572 37.6109 1.08637 39.7031 2.88852 40.7658C 3.87251 41.3459 5.01866 41.5284 6.04898 41.2597C 6.09531 41.559 6.13886 41.8592 6.18889 42.1566C 6.21947 42.3438 6.29081 42.4985 6.3881 42.6254C 7.41101 47.917 9.38271 52.9426 12.6488 57.3854C 21.1833 68.996 36.9495 72.2427 48.2682 62.6927C 54.2778 57.6207 57.8238 50.4168 59.8223 42.9293C 59.9854 42.3197 60.1466 41.6961 60.306 41.0651C 60.4839 41.1318 60.6877 41.1643 60.9184 41.1513C 66.7603 40.8261 67.8407 29.2432 62.8336 27.8006Z"/>
<path id="path4_fill" fill-rule="evenodd" d="M 74.4032 18.3489C 74.38 18.3758 74.3605 18.398 74.3374 18.4249C 74.2929 18.4508 74.2586 18.4944 74.2318 18.5481C 69.7435 23.7943 72.6029 18.2062 72.8577 16.7024C 73.2654 14.2878 72.7669 11.814 72.2712 9.45681C 72.1906 9.07785 71.6884 9.21498 71.6485 9.54112C 70.8674 15.9649 64.0999 16.4801 59.6191 13.6337C 57.8716 12.5246 55.8638 10.9662 54.2108 9.55595C 55.3662 9.22795 55.886 8.74243 56.6032 7.62965C 56.8052 7.31647 56.4725 6.99125 56.1566 7.04962C 50.9818 8.00675 47.3238 5.0038 42.4983 3.88175C 39.3925 3.15996 36.2811 3.06823 33.1466 3.51761C 33.797 2.43632 33.8378 1.68582 33.5524 0.292285C 33.4811 -0.0560988 32.9724 -0.0987201 32.8066 0.194997C 31.1184 3.19146 25.9556 1.80627 23.252 1.90541C 21.0125 1.98695 18.7813 2.28622 16.6707 3.06731C 14.8518 3.74184 11.5709 5.30122 10.7417 7.4221C 10.1969 5.8729 9.62517 4.40247 9.34813 2.75043C 9.2879 2.3937 8.81166 2.41409 8.64302 2.6587C 7.07437 4.9306 6.27198 7.83349 7.03638 10.5474C 4.11311 11.9946 2.03115 13.996 0.449529 16.8627C 0.254027 17.2176 0.643178 17.5938 0.995268 17.4075C 1.38257 17.2018 4.46335 15.5841 4.85621 16.6468C 4.94701 16.8933 3.5998 18.7742 3.43766 19.0985C 2.68159 20.6097 2.10528 22.2099 1.64293 23.8323C 0.638546 27.3541 0.267925 30.9704 0.00107814 34.609C -0.0285715 35.0083 0.561642 35.1464 0.745099 34.81C 1.05086 34.1689 1.44928 33.6092 1.93294 33.1228C 1.22227 34.9231 0.779381 36.9115 1.1046 38.8313C 1.0768 38.8554 1.04715 38.8785 1.01936 38.9026C 0.786794 39.1074 1.087 39.4845 1.34736 39.3279C 2.48887 38.6432 4.05381 37.3488 5.16475 39.402C 5.4316 39.8949 5.44549 40.6871 5.53815 41.2366C 5.80685 42.8108 5.93286 44.3869 5.9866 45.9805C 5.99772 46.3243 6.42301 46.3854 6.58237 46.1696C 7.4765 46.3261 8.63191 46.6226 9.31385 45.9277C 10.0078 45.2198 9.65574 43.2435 9.62702 42.4318C 9.59181 41.4571 8.67175 36.1313 10.1051 39.8329C 10.1931 40.0599 10.5712 40.1229 10.6314 39.8329C 11.229 36.9606 11.4199 34.0364 11.2392 31.1298C 11.2522 30.7897 11.2717 30.4506 11.2828 30.1106C 11.2902 29.9086 11.2188 29.7594 11.1104 29.6556C 10.965 28.2936 10.7472 26.9371 10.4405 25.5946C 11.0067 26.3506 11.4403 27.1836 11.7294 28.0999C 11.8322 28.427 12.2575 28.4029 12.3696 28.0999C 13.1183 26.0828 13.4472 24 13.2526 21.8902C 13.3999 22.0681 13.5528 22.2404 13.7048 22.4137C 16.3482 26.0106 20.6002 28.2315 25.0087 28.8792C 25.3293 28.9264 25.5998 28.5734 25.3423 28.3075C 24.7613 27.7099 24.3573 27.0557 24.0052 26.3654C 23.9172 25.9661 23.8487 25.5658 23.7875 25.1674C 31.766 32.4093 43.3007 36.0118 53.8986 33.8724C 54.2738 33.7964 54.1914 33.1839 53.8078 33.2034L 52.2632 32.6484C 53.6947 32.9569 55.1578 33.1024 56.618 33.108C 56.7764 35.4484 56.6449 37.6916 56.1251 39.995C 56.0324 40.4046 56.5161 40.6992 56.8283 40.4046C 57.0739 40.1729 57.3194 39.9413 57.564 39.7106C 57.5872 40.954 57.2407 42.1465 56.8218 43.3584C 56.5142 44.247 55.9453 45.2893 56.0584 46.2548C 56.114 46.7329 56.4003 47.1471 56.7635 47.3815C 56.7885 47.4074 56.807 47.4389 56.8376 47.4565C 57.6344 47.9356 58.6833 48.0115 59.583 48.1376C 59.8128 48.17 60.0277 48.0486 60.0342 47.7938C 60.0935 45.5645 60.3048 43.3501 60.6967 41.1532C 60.8032 40.5574 60.8292 39.4558 61.1507 38.9443C 62.6323 36.5844 63.4977 37.9492 64.8449 38.57C 65.0265 38.6543 65.2479 38.4264 65.0746 38.2716C 65.0607 38.2596 65.0487 38.2512 65.0348 38.2392C 65.0552 38.204 65.0839 38.1734 65.0848 38.128C 65.1404 36.11 64.995 33.6361 64.313 31.7172C 69.7028 29.6325 74.001 25.2666 74.9044 18.9364C 74.9174 18.9197 74.9304 18.9067 74.9443 18.89C 75.2473 18.512 74.7247 17.969 74.4032 18.3489Z"/>
<path id="path5_fill" fill-rule="evenodd" d="M 114.53 61.5628C 114.64 61.4062 114.718 61.2154 114.705 60.9559C 114.28 52.0295 113.33 43.0874 112.181 34.2268C 111.103 25.9286 110.011 17.244 107.238 9.31738C 107.042 8.75589 106.546 8.59745 106.13 8.72346C 106.076 8.69751 106.02 8.6725 105.956 8.65489C 99.4581 6.8055 92.8861 5.23129 86.3864 3.39023C 82.8534 2.38863 76.3286 -1.22956 72.8337 0.602234C 72.6771 0.684697 72.5937 0.807002 72.5594 0.940426C 64.9348 7.12423 53.2279 8.39731 45.7246 1.47968C 45.72 1.47319 45.7144 1.46671 45.7098 1.45929C 45.4309 1.09145 45.1474 0.727319 44.8861 0.34558C 44.6174 -0.0463517 44.2088 -0.0722951 43.916 0.105603C 43.4036 0.00275555 42.806 0.110236 42.3214 0.21123C 41.9091 0.297399 41.5209 0.47715 41.1484 0.684697C 37.483 1.0127 33.5173 3.13913 30.3439 4.20745C 24.6919 6.10966 19.0001 7.58287 13.2055 8.96529C 12.9025 9.03756 12.7237 9.21082 12.6338 9.4193C 12.5281 9.45914 12.4253 9.51937 12.3326 9.61665C 12.0584 9.90666 11.8555 10.2356 11.7017 10.5849C 9.95419 12.6261 9.13327 15.3446 8.26787 17.8833C 6.84746 22.0519 5.53825 26.2733 4.35319 30.515C 2.07387 38.6715 0.523749 46.9205 0.640494 55.4142C -0.748406 59.8719 0.238371 66.1697 2.47599 70.0686C 5.00363 74.4734 9.82447 77.1826 14.4943 78.7828C 27.2038 83.1376 42.2315 82.451 55.4803 82.6743C 69.6741 82.9143 84.41 83.8427 98.2675 80.1532C 105.826 78.1407 121.284 71.918 114.53 61.5628Z"/>
</defs>
</svg>
