<svg width="42" height="59" viewBox="0 0 42 59" version="1.1" xmlns="http://www.w3.org/2000/svg" xmlns:xlink="http://www.w3.org/1999/xlink">
<title>Light Bulb</title>
<desc>Created using Figma</desc>
<g id="Canvas" transform="translate(3870 -397)">
<g id="Light Bulb">
<g id="v 1.4">
<g id="Tech">
<g id="Light Bulb">
<g id="Rectangle 849">
<use xlink:href="#path0_fill" transform="translate(-3870 397)" fill="#FFFFFF" fill-opacity="0.5"/>
</g>
</g>
</g>
</g>
</g>
</g>
<defs>
<path id="path0_fill" fill-rule="evenodd" d="M 23.6 41.3L 25.1015 41.3C 25.1243 40.8557 25.1668 40.2413 25.2392 39.8437C 25.4824 38.5087 25.6518 37.7795 26.0215 36.824C 26.6591 35.1765 27.6714 33.7575 29.1808 32.6848C 33.0573 29.93 35.4 25.4917 35.4 20.65C 35.4 12.5038 28.7962 5.9 20.65 5.9C 12.5038 5.9 5.9 12.5038 5.9 20.65C 5.9 25.7206 8.10819 29.9619 12.0048 32.6203C 13.5452 33.6713 14.576 35.0886 15.2228 36.7403C 15.5935 37.6869 15.7652 38.4168 16.0077 39.7336C 16.09 40.1809 16.1533 40.837 16.1934 41.3L 17.7 41.3L 17.7 26.5656L 12.9854 23.0038C 11.6855 22.0217 11.4278 20.1717 12.4099 18.8718C 13.392 17.5718 15.242 17.3141 16.5419 18.2962L 20.6648 21.413L 24.7952 18.2962C 26.0951 17.3141 27.9451 17.5718 28.9272 18.8718C 29.9093 20.1717 29.6516 22.0217 28.3517 23.0038L 23.6 26.5936L 23.6 41.3ZM 16.4768 56.05L 13.2836 56.05C 11.6496 56.05 10.325 54.741 10.325 53.1006L 10.325 41.4461C 10.0115 39.8167 9.85434 38.2955 8.67967 37.4941C 3.23062 33.7765 0 27.7441 0 20.65C 0 9.24532 9.24532 0 20.65 0C 32.0547 0 41.3 9.24532 41.3 20.65C 41.3 27.6022 37.8645 33.7519 32.5985 37.4941C 31.4529 38.3082 31.2568 39.7504 30.9709 41.3L 30.975 41.3L 30.975 53.1006C 30.975 54.7295 29.6518 56.05 28.0164 56.05L 24.8232 56.05C 24.2158 57.7687 22.5767 59 20.65 59C 18.7233 59 17.0843 57.7687 16.4768 56.05ZM 16.225 47.2L 16.225 50.15L 25.075 50.15L 25.075 47.2L 16.225 47.2Z"/>
</defs>
</svg>
