<svg width="20" height="11" viewBox="0 0 20 11" version="1.1" xmlns="http://www.w3.org/2000/svg" xmlns:xlink="http://www.w3.org/1999/xlink">
<title>ic_link_white_24px</title>
<desc>Created using Figma</desc>
<g id="Canvas" transform="translate(-23205 -10959)">
<g id="ic_link_white_24px">
<g id="Shape">
<use xlink:href="#path0_fill" transform="translate(23205 10959.8)" fill="#251A3F"/>
</g>
</g>
</g>
<defs>
<path id="path0_fill" fill-rule="evenodd" d="M 1.90039 5C 1.90039 3.29004 3.28906 1.90039 5 1.90039L 9 1.90039L 9 0L 5 0C 2.24023 0 0 2.24023 0 5C 0 7.75977 2.24023 10 5 10L 9 10L 9 8.09961L 5 8.09961C 3.28906 8.09961 1.90039 6.70996 1.90039 5ZM 6 6L 14 6L 14 4L 6 4L 6 6ZM 11 0L 15 0C 17.7598 0 20 2.24023 20 5C 20 7.75977 17.7598 10 15 10L 11 10L 11 8.09961L 15 8.09961C 16.7109 8.09961 18.0996 6.70996 18.0996 5C 18.0996 3.29004 16.7109 1.90039 15 1.90039L 11 1.90039L 11 0Z"/>
</defs>
</svg>
