<svg width="14" height="21" viewBox="0 0 14 21" version="1.1" xmlns="http://www.w3.org/2000/svg" xmlns:xlink="http://www.w3.org/1999/xlink">
<title>ic_location_on_white_24px</title>
<desc>Created using Figma</desc>
<g id="Canvas" transform="translate(-23208 -10893)">
<g id="ic_location_on_white_24px">
<g id="Shape">
<use xlink:href="#path0_fill" transform="translate(23208 10893.8)" fill="#251A3F"/>
</g>
</g>
</g>
<defs>
<path id="path0_fill" fill-rule="evenodd" d="M 0 7C 0 3.12988 3.13086 0 7 0C 10.8691 0 14 3.12988 14 7C 14 12.25 7 20 7 20C 7 20 0 12.25 0 7ZM 4.5 7C 4.5 8.37988 5.61914 9.5 7 9.5C 7.73828 9.5 8.40039 9.17969 8.85938 8.6709C 9.25781 8.22852 9.5 7.64258 9.5 7C 9.5 5.62012 8.38086 4.5 7 4.5C 5.61914 4.5 4.5 5.62012 4.5 7Z"/>
</defs>
</svg>
