<svg width="13" height="16" viewBox="0 0 13 16" version="1.1" xmlns="http://www.w3.org/2000/svg" xmlns:xlink="http://www.w3.org/1999/xlink">
<title>Locked</title>
<desc>Created using Figma</desc>
<g id="Canvas" transform="translate(9991 126)">
<g id="Locked">
<g id="v 1.4">
<g id="UI">
<g id="Locked">
<g id="Combined Shape">
<use xlink:href="#path0_fill" transform="translate(-9991 -126)" fill="#251A3F"/>
</g>
</g>
</g>
</g>
</g>
</g>
<defs>
<path id="path0_fill" fill-rule="evenodd" d="M 5.6 12.1859C 5.12176 11.9093 4.8 11.3922 4.8 10.8C 4.8 9.91634 5.51634 9.2 6.4 9.2C 7.28366 9.2 8 9.91634 8 10.8C 8 11.3922 7.67824 11.9093 7.2 12.1859L 7.2 12.8008C 7.2 13.2422 6.84491 13.6 6.4 13.6C 5.95817 13.6 5.6 13.2453 5.6 12.8008L 5.6 12.1859ZM 1.6 6.8L 1.6 4.80013C 1.6 2.14894 3.74869 0 6.4 0C 9.05048 0 11.2 2.15022 11.2 4.80021L 11.2 6.8C 12.0838 6.80092 12.8 7.51482 12.8 8.40252L 12.8 14.3975C 12.8 15.2825 12.0844 16 11.1983 16L 1.6017 16C 0.717107 16 0 15.2857 0 14.3975L 0 8.40252C 0 7.51804 0.714694 6.80092 1.6 6.8ZM 3.2 6.8L 9.6 6.8L 9.6 4.80021C 9.6 3.03376 8.16671 1.6 6.4 1.6C 4.63239 1.6 3.2 3.03256 3.2 4.80013L 3.2 6.8ZM 1.6 8.4L 1.6 14.4L 11.2 14.4L 11.2 8.4L 1.6 8.4Z"/>
</defs>
</svg>
