<svg width="93" height="77" viewBox="0 0 93 77" version="1.1" xmlns="http://www.w3.org/2000/svg" xmlns:xlink="http://www.w3.org/1999/xlink">
<title>Money Hand</title>
<desc>Created using Figma</desc>
<g id="Canvas" transform="translate(-20184 -252)">
<g id="Money Hand">
<g id="v 1.4">
<g id="Finance &#38; Commerce">
<g id="Money Hand">
<g id="Combined Shape">
<use xlink:href="#path0_fill" transform="translate(20184.7 252)" fill="#E1E1E1"/>
</g>
</g>
</g>
</g>
</g>
</g>
<defs>
<path id="path0_fill" fill-rule="evenodd" d="M 21.6906 70.7578C 20.6369 72.0315 19.0425 72.8434 17.2578 72.8434L 5.74533 72.8434C 2.57227 72.8434 0 70.2713 0 67.1096L 0 32.5707C 0 29.4041 2.5718 26.837 5.74533 26.837L 17.2578 26.837C 19.8598 26.837 22.0578 28.5666 22.7647 30.9325C 26.2724 31.3923 29.6637 32.4301 32.8805 33.8855C 34.8701 34.7856 36.4876 35.6947 37.6679 36.4602C 38.7038 36.4602 49.8436 36.4217 49.8436 36.4217C 55.0456 36.4217 59.1273 39.3526 62.2866 44.0894L 74.7603 44.0894C 84.5101 44.0894 92 49.9281 91.9999 55.5617C 92.0218 58.8807 86.2407 64.0418 78.8332 68.3056C 69.6863 73.5706 59.1098 76.737 47.9438 76.6772C 36.9283 76.7362 28.6389 74.7743 22.7176 71.3771C 22.3633 71.1738 22.021 70.9673 21.6906 70.7578ZM 23.0032 62.0644C 23.5972 62.7304 24.7182 63.6848 26.5334 64.7262C 31.218 67.4139 38.1799 69.0617 47.9437 69.0095C 57.6993 69.0617 66.9725 66.2854 75.0081 61.6602C 78.0306 59.9204 80.6824 58.0143 82.657 56.2515C 83.0985 55.8573 83.525 55.4335 83.525 55.4335C 83.6939 55.269 83.7057 55.0281 83.5741 54.8744C 83.5741 54.8744 83.3615 54.5737 82.706 54.0627C 80.8784 52.638 78.2373 51.7571 74.7603 51.7571L 66.0876 51.7571C 66.4713 52.8295 66.7657 53.8134 66.9776 54.6592C 67.584 57.0794 65.7537 59.4248 63.2587 59.4248L 32.5878 59.4248C 30.4704 59.4248 28.754 57.7084 28.754 55.591C 28.754 53.4736 30.4704 51.7571 32.5878 51.7571L 57.5079 51.7571C 57.5079 51.7571 57.6257 51.2714 56.7996 49.8033C 54.7105 46.0903 52.3356 44.0894 49.8436 44.0894L 36.4217 44.0894C 35.5999 44.0894 34.7999 43.8254 34.1396 43.3362C 33.9851 43.2218 30.9603 41.4327 29.7198 40.8714C 27.5478 39.8888 25.2928 39.1509 23.0032 38.7312L 23.0032 62.0644ZM 15.3354 63.338C 15.3344 63.2873 15.3344 63.2366 15.3354 63.186L 15.3354 34.515C 15.3354 34.5116 15.3354 34.5082 15.3354 34.5047L 7.66772 34.5047L 7.66772 65.1756L 15.3354 65.1756L 15.3354 63.338L 15.3354 63.338ZM 72.8434 38.3386C 66.4912 38.3386 61.3418 33.1892 61.3418 26.837C 61.3418 20.4849 66.4912 15.3354 72.8434 15.3354C 79.1955 15.3354 84.3449 20.4849 84.3449 26.837C 84.3449 33.1892 79.1955 38.3386 72.8434 38.3386ZM 72.8434 30.6709C 74.9607 30.6709 76.6772 28.9544 76.6772 26.837C 76.6772 24.7196 74.9607 23.0032 72.8434 23.0032C 70.726 23.0032 69.0095 24.7196 69.0095 26.837C 69.0095 28.9544 70.726 30.6709 72.8434 30.6709ZM 46.0063 23.0032C 39.6542 23.0032 34.5047 17.8537 34.5047 11.5016C 34.5047 5.14943 39.6542 0 46.0063 0C 52.3585 0 57.5079 5.14943 57.5079 11.5016C 57.5079 17.8537 52.3585 23.0032 46.0063 23.0032ZM 46.0063 15.3354C 48.1237 15.3354 49.8402 13.619 49.8402 11.5016C 49.8402 9.3842 48.1237 7.66772 46.0063 7.66772C 43.8889 7.66772 42.1725 9.3842 42.1725 11.5016C 42.1725 13.619 43.8889 15.3354 46.0063 15.3354Z"/>
</defs>
</svg>
