<svg width="65" height="69" viewBox="0 0 65 69" version="1.1" xmlns="http://www.w3.org/2000/svg" xmlns:xlink="http://www.w3.org/1999/xlink">
<title>Roller</title>
<desc>Created using Figma</desc>
<g id="Canvas" transform="translate(-9289 -163)">
<g id="Roller">
<g id="v 1.4">
<g id="Home">
<g id="Roller">
<g id="Rectangle 617">
<use xlink:href="#path0_fill" transform="translate(9289 163)" fill="#E1E1E1"/>
</g>
</g>
</g>
</g>
</g>
</g>
<defs>
<path id="path0_fill" fill-rule="evenodd" d="M 54.7368 17.0867L 54.7368 20.5328C 54.7368 24.308 51.6767 27.3684 47.8875 27.3684L 6.84939 27.3684C 3.06658 27.3684 0 24.3086 0 20.5328L 0 6.83561C 0 3.06041 3.06018 0 6.84939 0L 47.8875 0C 51.6703 0 54.7368 3.05984 54.7368 6.83561L 54.7368 10.252L 58.165 10.252C 61.9399 10.252 65 13.3085 65 17.0802L 65 30.7625C 65 34.5336 61.927 37.5906 58.165 37.5906L 53.9721 37.5906L 30.7798 37.5906C 30.7808 37.5906 30.7835 39.4978 30.7858 41.2702C 33.7395 42.032 35.9211 44.7058 35.9211 47.8882L 35.9211 61.5854C 35.9211 65.3606 32.863 68.4211 29.0622 68.4211L 25.6746 68.4211C 21.8866 68.4211 18.8158 65.3612 18.8158 61.5854L 18.8158 47.8882C 18.8158 44.7061 20.9885 42.0318 23.9474 41.2701L 23.9474 37.5746C 23.9474 33.8088 27.0021 30.756 30.7798 30.756L 54.827 30.756L 58.1579 30.756L 58.1579 17.0867L 54.7368 17.0867ZM 25.6579 47.8947L 25.6579 61.5789L 29.0789 61.5789L 29.0789 47.8947L 25.6579 47.8947ZM 6.84211 6.8421L 6.84211 20.5263L 47.8947 20.5263L 47.8947 6.8421L 6.84211 6.8421Z"/>
</defs>
</svg>
