<svg width="65" height="49" viewBox="0 0 65 49" version="1.1" xmlns="http://www.w3.org/2000/svg" xmlns:xlink="http://www.w3.org/1999/xlink">
<title>Sent</title>
<desc>Created using Figma</desc>
<g id="Canvas" transform="translate(-9730 -173)">
<g id="Sent">
<g id="v 1.4">
<g id="Mail &#38; Chat">
<g id="Sent">
<g id="Combined Shape">
<use xlink:href="#path0_fill" transform="translate(9730 173)" fill="#E1E1E1"/>
</g>
</g>
</g>
</g>
</g>
</g>
<defs>
<path id="path0_fill" fill-rule="evenodd" d="M 55.7528 43.3304L 40.6253 28.2047L 37.125 31.705C 36.0712 32.7587 34.3641 32.7631 33.305 31.7148L 27.9291 26.3942C 26.866 25.3421 26.8572 23.6274 27.9093 22.5643C 28.9614 21.5013 30.6761 21.4924 31.7392 22.5445L 35.21 26.0321L 55.7635 5.41636L 2.70818 5.41636C 1.21249 5.41636 2.09349e-09 4.20387 2.09349e-09 2.70818C 2.09349e-09 1.21249 1.21249 0 2.70818 0L 59.5873 0C 62.5798 0 65 2.41978 65 5.41872L 65 43.3285C 65 46.3206 62.5809 48.7472 59.5873 48.7472L 18.9573 48.7472C 17.4616 48.7472 16.2491 47.5348 16.2491 46.0391C 16.2491 44.5434 17.4616 43.3309 18.9573 43.3309C 18.9573 43.3309 45.6328 43.3323 55.7528 43.3304ZM 59.5841 39.5018C 59.5851 32.2336 59.587 16.5102 59.5874 9.2425L 44.4552 24.3747L 59.5841 39.5018ZM 5.42003 16.2491C 5.42003 14.7534 6.63473 13.5409 8.13614 13.5409L 21.6612 13.5409C 23.1612 13.5409 24.3773 14.743 24.3773 16.2491C 24.3773 17.7448 23.1626 18.9573 21.6612 18.9573L 8.13614 18.9573C 6.63607 18.9573 5.42003 17.7552 5.42003 16.2491ZM 10.8364 32.4982C 10.8364 31.0025 12.0381 29.79 13.544 29.79L 21.6696 29.79C 23.165 29.79 24.3773 30.9921 24.3773 32.4982C 24.3773 33.9939 23.1756 35.2063 21.6696 35.2063L 13.544 35.2063C 12.0486 35.2063 10.8364 34.0043 10.8364 32.4982Z"/>
</defs>
</svg>
