<svg width="20" height="17" viewBox="0 0 20 17" version="1.1" xmlns="http://www.w3.org/2000/svg" xmlns:xlink="http://www.w3.org/1999/xlink">
<title>Combined Shape</title>
<desc>Created using Figma</desc>
<g id="Canvas" transform="translate(-23297 -10732)">
<g id="Combined Shape">
<use xlink:href="#path0_fill" transform="translate(23297 10732)" fill="#251A3F"/>
</g>
</g>
<defs>
<path id="path0_fill" fill-rule="evenodd" d="M 13.2627 8.13148C 13.0934 8.08022 12.9136 8.05263 12.7273 8.05263C 11.7231 8.05263 10.9091 8.85381 10.9091 9.8421C 10.9091 10.8304 11.7231 11.6316 12.7273 11.6316C 13.7314 11.6316 14.5455 10.8304 14.5455 9.8421C 14.5455 9.6587 14.5174 9.48175 14.4653 9.31516C 14.3228 9.62587 14.0052 9.8421 13.6364 9.8421C 13.1343 9.8421 12.7273 9.44152 12.7273 8.94737C 12.7273 8.58431 12.947 8.27176 13.2627 8.13148ZM 8.45455 2.68421L 9.20773 0.830981C 9.39425 0.372043 9.95321 0 10.4572 0L 14.9973 0C 15.5009 0 16.061 0.373729 16.2468 0.830981L 17 2.68421L 18.181 2.68421C 19.1856 2.68421 20 3.48457 20 4.47559L 20 15.2086C 20 16.198 19.185 17 18.181 17L 1.819 17C 0.814396 17 0 16.1996 0 15.2086L 0 4.47559C 0 3.48624 0.815042 2.68421 1.819 2.68421L 8.45455 2.68421ZM 8.45455 4.47368L 1.819 4.47368C 1.81912 4.47368 1.81818 15.2086 1.81818 15.2086C 1.81818 15.2108 18.181 15.2105 18.181 15.2105C 18.1809 15.2105 18.1818 4.47559 18.1818 4.47559C 18.1818 4.47346 17 4.47368 17 4.47368L 15.769 4.47368L 15.3119 3.3488L 14.6393 1.78947L 10.7746 1.78947L 10.1427 3.3488L 9.68551 4.47368L 8.45455 4.47368ZM 3.63636 7.15524C 3.63636 6.66256 4.03988 6.26316 4.54545 6.26316C 5.04753 6.26316 5.45455 6.66333 5.45455 7.15524L 5.45455 12.529C 5.45455 13.0217 5.05103 13.4211 4.54545 13.4211C 4.04338 13.4211 3.63636 13.0209 3.63636 12.529L 3.63636 7.15524ZM 9.09091 9.8421C 9.09091 7.86551 10.719 6.26316 12.7273 6.26316C 14.7356 6.26316 16.3636 7.86551 16.3636 9.8421C 16.3636 11.8187 14.7356 13.4211 12.7273 13.4211C 10.719 13.4211 9.09091 11.8187 9.09091 9.8421Z"/>
</defs>
</svg>
