<svg width="87" height="75" viewBox="0 0 87 75" version="1.1" xmlns="http://www.w3.org/2000/svg" xmlns:xlink="http://www.w3.org/1999/xlink">
<title>Combined Shape</title>
<desc>Created using Figma</desc>
<g id="Canvas" transform="translate(-20136 -10792)">
<g id="Combined Shape">
<g id="v 1.4">
<g id="UI">
<g id="Camera 2">
<g id="Combined Shape">
<use xlink:href="#path0_fill" transform="translate(20136 10792)" fill="#E1E1E1"/>
</g>
</g>
</g>
</g>
</g>
</g>
<defs>
<path id="path0_fill" fill-rule="evenodd" d="M 57.5879 35.8742C 56.853 35.648 56.0723 35.5263 55.2632 35.5263C 50.903 35.5263 47.3684 39.0609 47.3684 43.4211C 47.3684 47.7812 50.903 51.3158 55.2632 51.3158C 59.6233 51.3158 63.1579 47.7812 63.1579 43.4211C 63.1579 42.6119 63.0362 41.8312 62.81 41.0963C 62.1912 42.4671 60.8122 43.4211 59.2105 43.4211C 57.0305 43.4211 55.2632 41.6538 55.2632 39.4737C 55.2632 37.872 56.2171 36.4931 57.5879 35.8742ZM 36.7105 11.8421L 39.9809 3.66609C 40.7908 1.64137 43.2179 0 45.4063 0L 65.12 0C 67.3065 0 69.7385 1.6488 70.5454 3.66609L 73.8158 11.8421L 78.9438 11.8421C 83.3059 11.8421 86.8421 15.3731 86.8421 19.7452L 86.8421 67.0969C 86.8421 71.4616 83.3031 75 78.9438 75L 7.89831 75C 3.53619 75 0 71.469 0 67.0969L 0 19.7452C 0 15.3805 3.539 11.8421 7.89831 11.8421L 36.7105 11.8421ZM 36.7105 19.7368L 7.89831 19.7368C 7.89882 19.7368 7.89474 67.0969 7.89474 67.0969C 7.89474 67.1063 78.9438 67.1053 78.9438 67.1053C 78.9433 67.1053 78.9474 19.7452 78.9474 19.7452C 78.9474 19.7358 73.8158 19.7368 73.8158 19.7368L 68.4708 19.7368L 66.4857 14.7741L 63.5655 7.89474L 46.7844 7.89474L 44.0406 14.7741L 42.0555 19.7368L 36.7105 19.7368ZM 15.7895 31.5672C 15.7895 29.3936 17.5416 27.6316 19.7368 27.6316C 21.9169 27.6316 23.6842 29.3971 23.6842 31.5672L 23.6842 55.2749C 23.6842 57.4485 21.9321 59.2105 19.7368 59.2105C 17.5568 59.2105 15.7895 57.445 15.7895 55.2749L 15.7895 31.5672ZM 39.4737 43.4211C 39.4737 34.7008 46.5429 27.6316 55.2632 27.6316C 63.9834 27.6316 71.0526 34.7008 71.0526 43.4211C 71.0526 52.1413 63.9834 59.2105 55.2632 59.2105C 46.5429 59.2105 39.4737 52.1413 39.4737 43.4211Z"/>
</defs>
</svg>
