<svg width="39" height="26" viewBox="0 0 39 26" version="1.1" xmlns="http://www.w3.org/2000/svg" xmlns:xlink="http://www.w3.org/1999/xlink">
<title>switch-on</title>
<desc>Created using Figma</desc>
<g id="Canvas" transform="translate(-20739 -52)">
<g id="atoms/switch-on">
<g id="track" opacity="0.5">
<use xlink:href="#path0_fill" transform="translate(20739 57)" fill="#FFFFFF"/>
</g>
<g id="knob" filter="url(#filter0_dd)">
<use xlink:href="#path1_fill" transform="translate(20756 54)" fill="#FFFFFF"/>
<mask id="mask0_outline_ins">
<use xlink:href="#path1_fill" fill="white" transform="translate(20756 54)"/>
</mask>
<g mask="url(#mask0_outline_ins)">
<use xlink:href="#path2_stroke_2x" transform="translate(20756 54)" fill="url(#paint2_linear)"/>
<use xlink:href="#path2_stroke_2x" transform="translate(20756 54)" fill="url(#paint3_linear)"/>
</g>
</g>
</g>
</g>
<defs>
<filter id="filter0_dd" filterUnits="userSpaceOnUse" x="20754" y="52" width="24" height="26" color-interpolation-filters="sRGB">
<feFlood flood-opacity="0" result="BackgroundImageFix"/>
<feColorMatrix in="SourceAlpha" type="matrix" values="0 0 0 0 0 0 0 0 0 0 0 0 0 0 0 0 0 0 255 0"/>
<feOffset dx="0" dy="2"/>
<feGaussianBlur stdDeviation="1"/>
<feColorMatrix type="matrix" values="0 0 0 0 0 0 0 0 0 0 0 0 0 0 0 0 0 0 0.237602 0"/>
<feBlend mode="normal" in2="BackgroundImageFix" result="effect1_dropShadow"/>
<feColorMatrix in="SourceAlpha" type="matrix" values="0 0 0 0 0 0 0 0 0 0 0 0 0 0 0 0 0 0 255 0"/>
<feOffset dx="0" dy="0"/>
<feGaussianBlur stdDeviation="1"/>
<feColorMatrix type="matrix" values="0 0 0 0 0 0 0 0 0 0 0 0 0 0 0 0 0 0 0.12 0"/>
<feBlend mode="normal" in2="effect1_dropShadow" result="effect2_dropShadow"/>
<feBlend mode="normal" in="SourceGraphic" in2="effect2_dropShadow" result="shape"/>
</filter>
<linearGradient id="paint2_linear" x1="0" y1="0" x2="1" y2="0" gradientUnits="userSpaceOnUse" gradientTransform="matrix(0 19.8043 -19.8043 0 10 0)">
<stop offset="0" stop-color="#000000" stop-opacity="0.01"/>
<stop offset="0.8" stop-color="#000000" stop-opacity="0.02"/>
<stop offset="1" stop-color="#000000" stop-opacity="0.04"/>
</linearGradient>
<linearGradient id="paint3_linear" x1="0" y1="0" x2="1" y2="0" gradientUnits="userSpaceOnUse" gradientTransform="matrix(0 20 -20 0 10 0)">
<stop offset="0" stop-color="#FFFFFF" stop-opacity="0.12"/>
<stop offset="0.2" stop-color="#FFFFFF" stop-opacity="0.06"/>
<stop offset="1" stop-color="#FFFFFF" stop-opacity="0.01"/>
</linearGradient>
<path id="path0_fill" fill-rule="evenodd" d="M 34 7C 34 10.9 30.9 14 27 14L 7 14C 3.1 14 0 10.9 0 7C 0 3.1 3.1 0 7 0L 27 0C 30.9 0 34 3.1 34 7Z"/>
<path id="path1_fill" fill-rule="evenodd" d="M 10 20C 15.5228 20 20 15.5228 20 10C 20 4.47715 15.5228 0 10 0C 4.47715 0 0 4.47715 0 10C 0 15.5228 4.47715 20 10 20Z"/>
<path id="path2_stroke_2x" d="M 10 20.5C 15.799 20.5 20.5 15.799 20.5 10L 19.5 10C 19.5 15.2467 15.2467 19.5 10 19.5L 10 20.5ZM 20.5 10C 20.5 4.20101 15.799 -0.5 10 -0.5L 10 0.5C 15.2467 0.5 19.5 4.75329 19.5 10L 20.5 10ZM 10 -0.5C 4.20101 -0.5 -0.5 4.20101 -0.5 10L 0.5 10C 0.5 4.75329 4.75329 0.5 10 0.5L 10 -0.5ZM -0.5 10C -0.5 15.799 4.20101 20.5 10 20.5L 10 19.5C 4.75329 19.5 0.5 15.2467 0.5 10L -0.5 10Z"/>
</defs>
</svg>
