<svg width="22" height="15" viewBox="0 0 22 15" version="1.1" xmlns="http://www.w3.org/2000/svg" xmlns:xlink="http://www.w3.org/1999/xlink">
<title>Shape</title>
<desc>Created using Figma</desc>
<g id="Canvas" transform="translate(-23204 -11075)">
<g id="Shape">
<use xlink:href="#path0_fill" transform="translate(23204 11075.2)" fill="#251A3F"/>
</g>
</g>
<defs>
<path id="path0_fill" fill-rule="evenodd" d="M 9.99023 3C 9.99023 4.66016 8.66016 6 7 6C 5.33984 6 4 4.66016 4 3C 4 1.33984 5.33984 0 7 0C 8.66016 0 9.99023 1.33984 9.99023 3ZM 17.9902 3C 17.9902 4.66016 16.6602 6 15 6C 13.3398 6 12 4.66016 12 3C 12 1.33984 13.3398 0 15 0C 15.4844 0 15.9395 0.114258 16.3418 0.316406C 16.5723 0.431641 16.7832 0.575195 16.9746 0.743164C 17.4355 1.15039 17.7715 1.69727 17.9141 2.31934C 17.9629 2.53809 17.9902 2.76562 17.9902 3ZM 7 8C 4.66992 8 0 9.16992 0 11.5L 0 14L 14 14L 14 11.5C 14 9.16992 9.33008 8 7 8ZM 14.0293 8.0498C 14.3789 8.01953 14.709 8 15 8C 17.3301 8 22 9.16992 22 11.5L 22 14L 16 14L 16 11.5C 16 10.0195 15.1895 8.88965 14.0293 8.0498Z"/>
</defs>
</svg>
